<svg xmlns="http://www.w3.org/2000/svg" aria-hidden="true" style="position:absolute;width:0;height:0;overflow:hidden">
<defs>
<symbol id="icon-file" viewBox="0 0 29 32">
<path fill="#fff" d="m17.638.103 10.499 9.449v18.899c0 1.732-1.574 3.149-3.5 3.149H3.623c-1.926 0-3.482-1.418-3.482-3.149V3.254C.141 1.522 1.715.103 3.639.103h14zm3.501 15.749v3.149H7.142v-3.149h13.996zm0 6.301v3.148H7.142V22.15h13.996zM3.641 28.451h20.998V11.127h-8.748V3.254H3.641v25.197z" style="fill:var(--color1, #fff)"/>
</symbol>
<symbol id="icon-basket" viewBox="0 0 33 32">
<path fill="#fff" d="M30.72 11.612h-2.125a3.37 3.37 0 0 1-1.617 3.509l-.016.009a3.645 3.645 0 0 1-1.877.513h-.04a3.589 3.589 0 0 1-2.997-1.612l-.008-.013a3.31 3.31 0 0 1-.456-2.428l-.003.021h-9.773a3.296 3.296 0 0 1-.467 2.42l.008-.013a3.591 3.591 0 0 1-3.004 1.625h-.04.002a3.684 3.684 0 0 1-1.881-.515 3.375 3.375 0 0 1-1.627-3.537l-.003.021H2.671C1.196 11.612 0 12.757 0 14.172c0 1.412 1.197 2.557 2.671 2.557h.294l1.96 11.417c.206 1.194 1.283 2.07 2.546 2.07H25.92c1.263 0 2.34-.877 2.546-2.07l1.958-11.417h.295c1.475 0 2.671-1.145 2.671-2.559s-1.197-2.56-2.671-2.56zM11.389 27.256a1.623 1.623 0 0 1-.24.017h-.001c-.779 0-1.462-.547-1.582-1.308l-1.11-7.085c-.131-.84.473-1.621 1.347-1.747.877-.122 1.692.452 1.823 1.291l1.11 7.085c.131.839-.473 1.621-1.348 1.747zm6.909-1.52c0 .849-.717 1.536-1.603 1.536-.885 0-1.601-.687-1.601-1.536V18.65c0-.847.717-1.535 1.601-1.535s1.603.687 1.603 1.535v7.086zm6.637-6.857-1.11 7.086c-.118.761-.803 1.308-1.582 1.308-.079 0-.159-.006-.239-.017-.877-.125-1.479-.909-1.347-1.747l1.109-7.085c.132-.84.942-1.418 1.823-1.291.875.125 1.478.907 1.347 1.746z" style="fill:var(--color1, #fff)"/>
<path fill="#fff" d="M6.99 14.258c.41.243.867.36 1.319.36.839 0 1.66-.403 2.133-1.139a2.306 2.306 0 0 0 .186-2.161l4.758-7.37a1.384 1.384 0 0 0-.473-1.949l-.007-.004a1.52 1.52 0 0 0-2.035.455l-.003.005-4.757 7.37a2.512 2.512 0 0 0-1.928 1.114l-.006.009c-.729 1.13-.365 2.61.813 3.309zm15.775-2.94a2.297 2.297 0 0 0 .192 2.169l-.005-.009c.473.735 1.294 1.139 2.134 1.139.451 0 .906-.117 1.318-.362 1.177-.696 1.54-2.179.813-3.307a2.512 2.512 0 0 0-1.926-1.122h-.008l-4.758-7.37a1.493 1.493 0 0 0-1.248-.673h-.012.001c-.266 0-.534.07-.778.213a1.387 1.387 0 0 0-.476 1.958l-.003-.005 4.758 7.37z" style="fill:var(--color1, #fff)"/>
</symbol>
<symbol id="icon-heart" viewBox="0 0 37 32">
<path fill="#fff" d="M26.863 0c-3.224 0-6.317 1.413-8.337 3.645C16.507 1.413 13.413 0 10.189 0 4.483 0 0 4.221 0 9.592c0 6.592 6.299 11.963 15.84 20.125l2.686 2.284 2.686-2.302c9.541-8.143 15.84-13.512 15.84-20.106 0-5.373-4.483-9.592-10.189-9.592z" style="fill:var(--color1, #fff)"/>
</symbol>
<symbol id="icon-user" viewBox="0 0 33 32">
<path fill="#fff" stroke="#fff" stroke-width="3.84" d="M3.643 29.44h25.994s1.083 0 1.083-3.101-1.083-3.101-1.083-3.101l-9.747-5.17s2.633-3.558 3.249-6.203c.55-2.364 1.083-4.134 0-6.203-1.084-2.067-2.166-3.101-6.499-3.101s-5.091.75-6.499 3.101c-1.26 2.103 0 6.203 0 6.203s.506 1.951 1.083 3.101c.658 1.313 2.166 3.101 2.166 3.101l-9.747 5.17s-1.083 0-1.083 3.101 1.083 3.101 1.083 3.101z" style="fill:var(--color1, #fff);stroke:var(--color1, #fff)"/>
</symbol>
</defs>
</svg>