<svg width="24" height="24" viewBox="0 0 24 24" fill="none" xmlns="http://www.w3.org/2000/svg">
<path id="icon"  fill-rule="evenodd" clip-rule="evenodd" d="M11.9344 3.21538C13.1639 1.60979 15.0477 0.59375 17.0104 0.59375C20.4847 0.59375 23.2144 3.62932 23.2144 7.49278C23.2144 12.2304 19.3855 16.0914 13.5843 21.9412L13.57 21.9556L11.9344 23.6114L10.2988 21.9682L10.2542 21.9232C4.46993 16.078 0.654297 12.2222 0.654297 7.49278C0.654297 3.62932 3.38407 0.59375 6.85834 0.59375C8.82107 0.59375 10.7048 1.60979 11.9344 3.21538ZM11.9342 20.2239L12.047 20.0984C17.4163 14.6921 20.9583 11.1171 20.9583 7.49198C20.9583 4.98323 19.2663 3.10167 17.0103 3.10167C15.2731 3.10167 13.5811 4.3435 12.9946 6.06199H10.8852C10.2874 4.3435 8.59535 3.10167 6.85822 3.10167C4.60222 3.10167 2.91021 4.98323 2.91021 7.49198C2.91021 11.1171 6.45214 14.6921 11.8214 20.0984L11.9342 20.2239Z" fill="white"/>
</svg>
