<svg aria-hidden="true" style="position: absolute; width: 0; height: 0; overflow: hidden;" version="1.1" xmlns="http://www.w3.org/2000/svg" xmlns:xlink="http://www.w3.org/1999/xlink">
<defs>
<symbol id="icon-vector1"  width="10" height="10" viewBox="0 0 53 32">
<path   stroke="#fff" style="stroke: var(--color1, #fff)" stroke-linejoin="miter" stroke-linecap="butt" stroke-miterlimit="4" stroke-width="5.3333" d="M48 5.333l-21.333 21.333-21.333-21.333"></path>
</symbol>
<symbol id="icon-Vector" viewBox="0 0 53 32">
<path stroke-linejoin="miter" stroke-linecap="butt" stroke-miterlimit="4" stroke-width="5.3333" d="M48 5.333l-21.333 21.333-21.333-21.333"></path>
</symbol>
<symbol id="icon-cross" viewBox="0 0 32 32">
<path d="M26.667 7.303l-1.97-1.97-7.808 7.808-7.808-7.808-1.97 1.97 7.808 7.808-7.808 7.808 1.97 1.97 7.808-7.808 7.808 7.808 1.97-1.97-7.808-7.808 7.808-7.808z"></path>
</symbol>
<symbol id="icon-menu-burger" viewBox="0 0 32 32">
<path fill="#c4c4c4" style="fill: var(--color2, #c4c4c4)" d="M0.527 2.978h29.867v1.681h-29.867zM0.527 28.186h29.867v1.681h-29.867zM13.965 16.42h16.427v1.681h-16.427z"></path>
</symbol>
<symbol id="icon-cart" viewBox="0 0 32 32">
<path fill="none" stroke="#c4c4c4" style="stroke: var(--color2, #c4c4c4)" stroke-linejoin="miter" stroke-linecap="butt" stroke-miterlimit="4" stroke-width="1.8824" d="M5.028 14.127c0.115-1.464 1.332-2.609 2.815-2.609 0 0 0 0 0.001 0h16.312c0 0 0 0 0.001 0 1.484 0 2.7 1.145 2.815 2.599l0.001 0.010 0.956 12.489c0.005 0.065 0.008 0.14 0.008 0.216 0 1.559-1.264 2.824-2.824 2.824-0 0-0.001 0-0.001 0h-18.223c-0.001 0-0.002 0-0.003 0-1.559 0-2.824-1.264-2.824-2.824 0-0.076 0.003-0.152 0.009-0.226l-0.001 0.010 0.956-12.489z"></path>
<path fill="none" stroke="#c4c4c4" style="stroke: var(--color2, #c4c4c4)" stroke-linejoin="miter" stroke-linecap="butt" stroke-miterlimit="4" stroke-width="1.8824" d="M10.485 14.153v-6.524c0-0.621 0.053-1.242 0.273-1.82 0.553-1.449 2.082-4.137 5.754-3.913 4.062 0.248 5.096 3.256 5.342 4.38 0.046 0.227 0.073 0.487 0.073 0.754 0 0.033-0 0.065-0.001 0.098l0-0.005v7.032"></path>
<path fill="#c4c4c4" style="fill: var(--color2, #c4c4c4)" d="M11.608 14.357c0 0.621-0.503 1.124-1.124 1.124s-1.124-0.503-1.124-1.124c0-0.621 0.503-1.124 1.124-1.124s1.124 0.503 1.124 1.124z"></path>
<path fill="#c4c4c4" style="fill: var(--color2, #c4c4c4)" d="M23.048 14.357c0 0.621-0.503 1.124-1.124 1.124s-1.124-0.503-1.124-1.124c0-0.621 0.503-1.124 1.124-1.124s1.124 0.503 1.124 1.124z"></path>
</symbol>
<symbol id="icon-man" viewBox="0 0 32 32">
<path fill="none" stroke="#c4c4c4" style="stroke: var(--color2, #c4c4c4)" stroke-linejoin="miter" stroke-linecap="butt" stroke-miterlimit="4" stroke-width="2" d="M28.922 30h-25.846s-1.076 0-1.076-3.23c0-3.232 1.076-3.232 1.076-3.232l9.694-5.384s-1.5-1.862-2.154-3.23c-0.574-1.2-1.078-3.232-1.078-3.232s-1.252-4.27 0-6.46c1.402-2.452 2.154-3.232 6.462-3.232s5.384 1.076 6.46 3.23c1.080 2.154 0.548 4 0 6.462-0.61 2.754-3.23 6.46-3.23 6.46l9.692 5.386s1.078 0 1.078 3.232c0 3.23-1.078 3.23-1.078 3.23z"></path>
</symbol>
<symbol id="icon-search" viewBox="0 0 32 32">
<path fill="none" stroke="#c4c4c4" style="stroke: var(--color2, #c4c4c4)" stroke-linejoin="miter" stroke-linecap="butt" stroke-miterlimit="4" stroke-width="2.2857" d="M24 12.571c0 6.312-5.117 11.429-11.429 11.429s-11.429-5.117-11.429-11.429c0-6.312 5.117-11.429 11.429-11.429s11.429 5.117 11.429 11.429z"></path>
<path fill="#c4c4c4" style="fill: var(--color2, #c4c4c4)" d="M20.709 20.791l10.629 9.232c0.366 0.318 0.425 0.891 0.133 1.278-0.149 0.202-0.386 0.332-0.653 0.332-0.209 0-0.399-0.079-0.543-0.209l0.001 0.001-10.624-9.232 1.061-1.401z"></path>
</symbol>
<symbol id="icon-facebook" viewBox="0 0 32 32">
<path d="M21.328 5.312h2.923v-5.088c-1.232-0.143-2.66-0.224-4.108-0.224-0.052 0-0.104 0-0.156 0l0.008-0c-4.213 0-7.099 2.65-7.099 7.52v4.48h-4.646v5.688h4.646v14.312h5.699v-14.31h4.459l0.707-5.688h-5.168v-3.922c0-1.643 0.443-2.768 2.734-2.768z"></path>
</symbol>
<symbol id="icon-instagram" viewBox="0 0 32 32">
<path d="M31.968 9.408c-0.074-1.701-0.349-2.869-0.742-3.882-0.424-1.111-1.054-2.059-1.85-2.837l-0.001-0.001c-0.78-0.792-1.724-1.419-2.778-1.827l-0.054-0.018c-1.019-0.394-2.181-0.667-3.882-0.742-1.712-0.082-2.256-0.101-6.602-0.101-4.344 0-4.888 0.019-6.595 0.094-1.699 0.074-2.869 0.349-3.88 0.742-1.112 0.424-2.060 1.054-2.839 1.85l-0.001 0.001c-0.791 0.78-1.418 1.724-1.825 2.778l-0.018 0.054c-0.395 1.019-0.669 2.181-0.744 3.882-0.082 1.712-0.101 2.256-0.101 6.602 0 4.344 0.019 4.888 0.094 6.595 0.075 1.701 0.35 2.869 0.744 3.882 0.426 1.11 1.055 2.057 1.849 2.837l0.001 0.001c0.8 0.813 1.77 1.443 2.832 1.843 1.019 0.395 2.182 0.67 3.882 0.744 1.707 0.075 2.251 0.094 6.595 0.094 4.346 0 4.89-0.019 6.595-0.094 1.701-0.074 2.869-0.349 3.882-0.742 2.157-0.85 3.833-2.526 4.664-4.628l0.019-0.055c0.394-1.019 0.669-2.182 0.744-3.882 0.075-1.707 0.093-2.251 0.093-6.595s-0.006-4.888-0.080-6.595zM29.088 22.474c-0.070 1.563-0.333 2.406-0.55 2.97-0.552 1.399-1.64 2.486-3.004 3.024l-0.036 0.012c-0.56 0.219-1.411 0.482-2.968 0.55-1.688 0.075-2.194 0.094-6.464 0.094-4.269 0-4.782-0.019-6.464-0.094-1.563-0.069-2.406-0.331-2.97-0.55-0.721-0.269-1.334-0.676-1.836-1.192l-0.001-0.001c-0.517-0.503-0.924-1.117-1.184-1.803l-0.011-0.034c-0.218-0.563-0.48-1.413-0.549-2.97-0.075-1.688-0.094-2.195-0.094-6.464 0-4.27 0.019-4.784 0.094-6.464 0.069-1.563 0.331-2.406 0.549-2.97 0.269-0.722 0.678-1.337 1.198-1.837l0.002-0.002c0.504-0.517 1.119-0.923 1.806-1.182l0.034-0.011c0.56-0.219 1.411-0.48 2.968-0.55 1.688-0.074 2.195-0.093 6.464-0.093 4.275 0 4.782 0.019 6.464 0.093 1.563 0.069 2.406 0.331 2.97 0.55 0.693 0.256 1.325 0.662 1.837 1.194 0.531 0.52 0.938 1.144 1.195 1.84 0.218 0.56 0.48 1.411 0.549 2.968 0.075 1.688 0.094 2.194 0.094 6.464 0 4.269-0.019 4.768-0.094 6.458z"></path>
<path d="M16.059 7.782c-4.539 0.002-8.218 3.682-8.219 8.221v0c0 0 0 0.001 0 0.002 0 4.541 3.681 8.222 8.222 8.222s8.222-3.681 8.222-8.222c0-4.541-3.681-8.222-8.222-8.222-0.001 0-0.001 0-0.002 0h0zM16.059 21.334c-2.945-0-5.332-2.388-5.332-5.333s2.388-5.333 5.333-5.333c0 0 0.001 0 0.001 0h-0c2.946 0 5.334 2.388 5.334 5.334s-2.388 5.334-5.334 5.334v0zM26.525 7.458c0 1.060-0.86 1.92-1.92 1.92s-1.92-0.86-1.92-1.92v0c0-1.060 0.86-1.92 1.92-1.92s1.92 0.86 1.92 1.92v0z"></path>
</symbol>
<symbol id="icon-twitter" viewBox="0 0 32 32">
<path d="M32 6.078c-1.1 0.493-2.376 0.857-3.713 1.028l-0.068 0.007c1.36-0.817 2.382-2.078 2.873-3.579l0.013-0.046c-1.197 0.722-2.591 1.273-4.076 1.573l-0.084 0.014c-1.2-1.279-2.9-2.076-4.787-2.076-3.622 0-6.558 2.936-6.558 6.558 0 0.001 0 0.003 0 0.004v-0c0 0.52 0.043 1.021 0.152 1.496-5.454-0.266-10.28-2.88-13.522-6.861-0.564 0.949-0.899 2.092-0.902 3.313v0.001c0 2.272 1.171 4.286 2.914 5.451-1.091-0.030-2.107-0.325-2.994-0.823l0.033 0.017v0.072c0.003 3.165 2.236 5.807 5.213 6.44l0.043 0.008c-0.499 0.136-1.071 0.215-1.662 0.215-0.020 0-0.041-0-0.061-0l0.003 0c-0.419 0-0.843-0.024-1.242-0.112 0.85 2.598 3.261 4.509 6.13 4.57-2.215 1.746-5.045 2.8-8.122 2.8-0.004 0-0.008 0-0.013 0h0.001c-0.018 0-0.040 0-0.062 0-0.531 0-1.055-0.034-1.569-0.099l0.061 0.006c2.826 1.846 6.287 2.944 10.004 2.944 0.021 0 0.042-0 0.063-0h-0.003c12.072 0 18.672-10 18.672-18.669 0-0.288-0.010-0.57-0.024-0.848 1.299-0.936 2.39-2.064 3.258-3.355l0.030-0.047z"></path>
</symbol>
</defs>
</svg>
